<?xml version="1.0" encoding="UTF-8" standalone="no"?><!DOCTYPE svg PUBLIC "-//W3C//DTD SVG 1.1//EN" "http://www.w3.org/Graphics/SVG/1.1/DTD/svg11.dtd"><svg width="100%" height="100%" viewBox="0 0 1600 1600" version="1.1" xmlns="http://www.w3.org/2000/svg" xmlns:xlink="http://www.w3.org/1999/xlink" xml:space="preserve" xmlns:serif="http://www.serif.com/" style="fill-rule:evenodd;clip-rule:evenodd;stroke-linejoin:round;stroke-miterlimit:2;"><g id="图层1"><path d="M950.516,6.048l443.399,443.4l0,932.593c0,117.62 -95.493,213.113 -213.113,213.113l-756.707,0c-117.621,0 -213.114,-95.493 -213.114,-213.113l0,-1162.88c0,-117.621 95.493,-213.114 213.114,-213.114l526.421,0Z" style="fill:#164982;"/><path d="M950.882,5.979l442.77,443.069l-0,1.816l-443.505,0l-0,-444.885l0.735,0Z" style="fill:#4f88c9;"/></g><path d="M475.103,1101.25l0,-39.714l91.146,0l0,81.381c-17.448,11.892 -32.877,19.987 -46.289,24.283c-13.411,4.297 -29.318,6.446 -47.721,6.446c-22.656,-0 -41.124,-3.863 -55.404,-11.589c-14.279,-7.725 -25.347,-19.227 -33.203,-34.505c-7.856,-15.278 -11.784,-32.812 -11.784,-52.604c0,-20.833 4.297,-38.954 12.891,-54.362c8.594,-15.408 21.18,-27.105 37.76,-35.091c12.934,-6.163 30.339,-9.245 52.214,-9.245c21.094,-0 36.87,1.91 47.331,5.729c10.46,3.82 19.14,9.744 26.041,17.774c6.901,8.029 12.088,18.207 15.56,30.533l-56.901,10.157c-2.344,-7.205 -6.315,-12.717 -11.914,-16.537c-5.599,-3.819 -12.739,-5.729 -21.419,-5.729c-12.934,0 -23.242,4.492 -30.925,13.477c-7.682,8.984 -11.523,23.198 -11.523,42.643c-0,20.66 3.884,35.416 11.653,44.271c7.77,8.854 18.599,13.281 32.487,13.281c6.598,-0 12.891,-0.955 18.881,-2.865c5.989,-1.909 12.847,-5.165 20.573,-9.765l-0,-17.969l-39.454,-0Z" style="fill:#fff;fill-rule:nonzero;"/><path d="M602.057,1170.39l-0,-190.886l98.307,0c18.229,0 32.161,1.563 41.797,4.688c9.635,3.125 17.404,8.919 23.307,17.382c5.903,8.464 8.854,18.772 8.854,30.925c0,10.59 -2.257,19.727 -6.771,27.409c-4.514,7.682 -10.72,13.91 -18.619,18.685c-5.035,3.038 -11.936,5.555 -20.704,7.552c7.032,2.344 12.153,4.687 15.365,7.031c2.17,1.563 5.317,4.905 9.44,10.026c4.123,5.122 6.879,9.071 8.268,11.849l28.516,55.339l-66.667,-0l-31.51,-58.334c-3.993,-7.552 -7.552,-12.456 -10.677,-14.713c-4.254,-2.952 -9.071,-4.427 -14.453,-4.427l-5.209,-0l0,77.474l-59.244,-0Zm59.244,-113.542l24.87,-0c2.691,-0 7.899,-0.868 15.625,-2.604c3.906,-0.782 7.096,-2.778 9.57,-5.99c2.474,-3.212 3.711,-6.901 3.711,-11.068c0,-6.163 -1.953,-10.894 -5.859,-14.192c-3.906,-3.299 -11.241,-4.948 -22.005,-4.948l-25.912,-0l0,38.802Z" style="fill:#fff;fill-rule:nonzero;"/><path d="M926.145,1138.88l-67.187,0l-9.245,31.511l-60.287,-0l71.745,-190.886l64.323,0l71.745,190.886l-61.719,-0l-9.375,-31.511Zm-12.37,-41.276l-21.093,-68.62l-20.964,68.62l42.057,0Z" style="fill:#fff;fill-rule:nonzero;"/><path d="M982.525,979.504l61.719,0l42.969,137.37l42.318,-137.37l59.895,0l-70.833,190.886l-63.932,-0l-72.136,-190.886Z" style="fill:#fff;fill-rule:nonzero;"/></svg>